<?xml version="1.0" encoding="UTF-8" standalone="no"?>
<svg
        width="32"
        height="32"
        viewBox="0 0 16 16"
        fill="none"
        stroke="#000"
        stroke-width="0.8"
        stroke-linecap="round"
        stroke-linejoin="round"
        xmlns="http://www.w3.org/2000/svg">

    <!-- Circular background -->
    <circle cx="8" cy="8" r="7" fill="#f0f2f5" stroke="none"/>

    <!-- Icon content, centered -->
    <g transform="translate(8,8) scale(0.85) translate(-8,-8)">
        <line
                x1="3.8912892"
                y1="10.164137"
                x2="3.8912892"
                y2="4.2648416"
                style="stroke-width:0.8"/>
        <polyline
                points="3.2,6.5 4,5.5 4.8,6.5"
                transform="matrix(1.0643557,0,0,1.179859,-0.36613363,-2.2243833)"/>
        <line
                x1="12.406136"
                y1="6.0346298"
                x2="12.406136"
                y2="11.933926"
                style="stroke-width:0.8"/>
        <polyline
                points="11.2,11 12,12 12.8,11"
                transform="matrix(1.0643557,0,0,1.179859,-0.36613363,-2.2243833)"/>
        <polyline
                points="5.6,8.3 7,8.3 8,7.2 9,9.5 10.1,8.3 10.6,8.3"
                transform="matrix(1.0643557,0,0,1.179859,-0.44527506,-1.7947216)"/>
    </g>
</svg>
